<svg xmlns="http://www.w3.org/2000/svg" viewBox="0 0 426.28 426.1"><defs><style>.cls-1{fill:#bfae65;}</style></defs><g id="Layer_2" data-name="Layer 2"><g id="Layer_1-2" data-name="Layer 1"><path class="cls-1" d="M45.66,318.83c7.49.05,16.53.25,25.43-1.37a81.43,81.43,0,0,0,40.6-19.83c11.7-10.49,20.08-23.16,24.42-38.26,6.27-21.86,4-42.91-7.35-62.7s-28.3-32.82-50.28-39.16c-2-.58-4-1-6.07-1.43-1.77-.34-2-1.05-1.31-2.72,4-10.22,3.5-20.14-2.92-29.26-5.91-8.38-14-13-24.49-12.93-5,.06-10,0-15,0-2.32,0-2.55-.45-1.46-2.39a213.85,213.85,0,0,1,94.88-88.43A216.41,216.41,0,0,1,178.63,2.78,218.77,218.77,0,0,1,224.69.27a206.65,206.65,0,0,1,62.67,13,209.94,209.94,0,0,1,65.08,38.58A212,212,0,0,1,405,120.28a215.39,215.39,0,0,1,19.62,66A211.11,211.11,0,0,1,425.94,225a207.78,207.78,0,0,1-18.12,74.84,215,215,0,0,1-99.51,104,206.16,206.16,0,0,1-60,19.47A218.71,218.71,0,0,1,220.94,426,213,213,0,0,1,29.51,321.33c-.38-.64-1.15-1.31-.7-2.07s1.41-.41,2.14-.42C35.34,318.82,39.74,318.83,45.66,318.83ZM265.73,178.67q44.5,0,89,0c1.16,0,2.9.61,1.82-1.9-6.9-16-16.33-30.19-29.79-41.49A106.45,106.45,0,0,0,296,116.77a104.11,104.11,0,0,0-45.6-6.55,101.5,101.5,0,0,0-35.79,9.39c-23.23,11.08-40.26,28.35-50.9,51.81a104.67,104.67,0,0,0,4.86,95.14,103.58,103.58,0,0,0,49.19,43.84,100.81,100.81,0,0,0,53.81,7.49,99.1,99.1,0,0,0,33.46-10.08,105.61,105.61,0,0,0,31.09-23.66A111.5,111.5,0,0,0,358,246.38c.48-1.35.11-1.88-1.27-1.87-2.78,0-5.57.16-8.33-.06-2.59-.21-3.61.82-4.26,3.27a77.13,77.13,0,0,1-17.94,33,86.42,86.42,0,0,1-40.06,24.65,77.06,77.06,0,0,1-39.28,1.24c-17.84-4-32.64-13.32-45.08-26.6a115.23,115.23,0,0,1-27.11-47.53,98.91,98.91,0,0,1-1.71-50.26c.81-3.53.86-3.53,4.45-3.53Z"/><path class="cls-1" d="M38.48,309.23c-5.09,0-9.25-.05-13.41,0a3.14,3.14,0,0,1-3.22-2A212.09,212.09,0,0,1,2.22,244.15,208,208,0,0,1,.07,208.46,146.46,146.46,0,0,1,1.2,190.72a7,7,0,0,1,1.92-3.83c12.71-13.7,28.42-21.55,47-23.28,15.42-1.43,30,1.63,42.69,11,9.91,7.27,16.63,17,21.15,28.33a87.55,87.55,0,0,1,5.8,39.68,69.37,69.37,0,0,1-16.77,40.31c-13.11,15.38-29.79,24-49.91,26C47.86,309.38,42.71,309.07,38.48,309.23Z"/><path class="cls-1" d="M3.71,173.51a177.31,177.31,0,0,1,4.11-17.83A214.64,214.64,0,0,1,19.92,123,3.79,3.79,0,0,1,24,120.45c3.84.16,7.68.08,11.53.36,13.67,1,22.66,16.17,16.86,28.64-.22.49-.5,1-.72,1.45a7,7,0,0,1-6.16,4.58A80.72,80.72,0,0,0,5.59,172.37C5.18,172.69,4.7,172.92,3.71,173.51Z"/><path class="cls-1" d="M254.17,169.07H180.89c-3.33,0-3.34-.2-1.9-3.13a77.51,77.51,0,0,1,14.79-20.54A82,82,0,0,1,213.46,131a87.42,87.42,0,0,1,33.32-10.38,75.55,75.55,0,0,1,31.67,3.63c22.52,7.64,38.68,22.9,51.12,42.61.36.56,1,1.2.53,1.86s-1.44.37-2.19.37Z"/></g></g></svg>